<svg width="12" height="12" viewBox="0 0 12 12" fill="none" xmlns="http://www.w3.org/2000/svg">
<g clip-path="url(#clip0_580_9004)">
<path d="M8.5 1H3.5C2.11929 1 1 2.11929 1 3.5V8.5C1 9.88071 2.11929 11 3.5 11H8.5C9.88071 11 11 9.88071 11 8.5V3.5C11 2.11929 9.88071 1 8.5 1Z" stroke="#D77900" stroke-linecap="round" stroke-linejoin="round"/>
<path d="M8.0001 5.685C8.0618 6.10112 7.99073 6.52611 7.79698 6.89951C7.60323 7.2729 7.29667 7.5757 6.92091 7.76483C6.54515 7.95397 6.11932 8.0198 5.70399 7.95296C5.28866 7.88613 4.90498 7.69004 4.60752 7.39258C4.31006 7.09512 4.11396 6.71144 4.04713 6.2961C3.9803 5.88077 4.04613 5.45495 4.23526 5.07919C4.42439 4.70343 4.72719 4.39687 5.10059 4.20312C5.47399 4.00937 5.89897 3.93829 6.3151 4C6.73956 4.06294 7.13252 4.26073 7.43594 4.56415C7.73937 4.86757 7.93716 5.26054 8.0001 5.685Z" stroke="#D77900" stroke-linecap="round" stroke-linejoin="round"/>
<path d="M8.75 3.25H8.755" stroke="#D77900" stroke-linecap="round" stroke-linejoin="round"/>
</g>
<defs>
<clipPath id="clip0_580_9004">
<rect width="12" height="12" fill="white"/>
</clipPath>
</defs>
</svg>
