<svg width="12" height="12" viewBox="0 0 12 12" fill="none" xmlns="http://www.w3.org/2000/svg">
<g clip-path="url(#clip0_580_8992)">
<g clip-path="url(#clip1_580_8992)">
<path d="M2.83362 1.33334C2.84151 1.33334 2.8494 1.33345 2.85751 1.33367C2.87207 1.33401 2.88651 1.33489 2.90062 1.33578C2.91962 1.33701 2.93862 1.33845 2.95762 1.34067C2.97285 1.34245 2.98796 1.34489 3.00307 1.34723C3.02107 1.35012 3.03896 1.35289 3.05718 1.35678C3.07152 1.35978 3.08552 1.36356 3.1044 1.36834L3.11063 1.37001C3.1254 1.37378 3.14018 1.37745 3.15485 1.38201C3.16852 1.38623 3.18196 1.39134 3.19552 1.39623L3.20396 1.39934L3.21774 1.40434C3.22863 1.40823 3.23963 1.41212 3.25041 1.41656C3.26396 1.42223 3.2773 1.42879 3.29063 1.43523L3.30107 1.44023L3.31941 1.4489C3.32741 1.45267 3.33541 1.45623 3.3433 1.46045C3.35719 1.4679 3.37063 1.47634 3.38419 1.48456L3.39519 1.49134L3.41652 1.50412C3.42174 1.50723 3.42719 1.51012 3.43241 1.51368C3.44941 1.52501 3.46574 1.53779 3.48208 1.55034L3.48808 1.5549C3.49552 1.56057 3.50308 1.56612 3.51063 1.57157L3.51719 1.57623C3.54575 1.59957 3.57263 1.6239 3.59719 1.64834L4.50376 2.55492C4.52832 2.57947 4.55254 2.60636 4.57499 2.63369L4.58087 2.64169C4.58632 2.64925 4.59176 2.6567 4.59743 2.66414L4.60254 2.67092C4.61487 2.68703 4.62732 2.70292 4.63854 2.71981C4.6421 2.72514 4.6451 2.7307 4.64832 2.73614L4.66076 2.75703L4.66776 2.76847C4.67599 2.78181 4.68432 2.79514 4.69165 2.80903C4.69588 2.81692 4.69954 2.82503 4.70321 2.83303L4.71177 2.85114L4.71688 2.86181C4.72321 2.87503 4.72977 2.88825 4.73543 2.90181C4.73988 2.91237 4.74354 2.92314 4.74743 2.93392L4.75254 2.94803L4.75566 2.95648C4.76066 2.97003 4.76566 2.98359 4.76999 2.99759C4.77443 3.01181 4.77799 3.02626 4.78166 3.0407L4.78432 3.05126C4.7881 3.06592 4.79199 3.08059 4.79521 3.09559C4.79899 3.11326 4.80177 3.13104 4.80454 3.14893C4.80699 3.16426 4.80943 3.17948 4.81121 3.19504C4.81343 3.21393 4.81477 3.23282 4.81599 3.25159C4.81688 3.26604 4.81777 3.28037 4.8181 3.29482C4.81855 3.31471 4.81843 3.3346 4.81788 3.35437C4.81743 3.36782 4.81688 3.38126 4.81599 3.39482C4.81466 3.4156 4.81266 3.43626 4.81021 3.45649C4.80866 3.46882 4.80688 3.48115 4.80488 3.4936C4.80143 3.51515 4.79766 3.53649 4.79299 3.55771C4.79077 3.56771 4.78821 3.57749 4.78488 3.59071C4.77932 3.61282 4.77332 3.63493 4.76643 3.6566C4.76466 3.66227 4.76254 3.66782 4.76054 3.67349L4.75632 3.68527C4.74832 3.70794 4.7401 3.73049 4.73065 3.75249L4.72654 3.76127L4.71943 3.77649C4.70877 3.79971 4.69788 3.82272 4.68432 3.84727L4.67465 3.86372C4.65854 3.89183 4.64588 3.91249 4.6341 3.93005C4.63032 3.93505 4.62665 3.94005 4.6231 3.94505C4.60243 3.97461 4.58499 3.99772 4.56821 4.01772C4.54276 4.04816 4.52287 4.07028 4.50376 4.08939L3.89042 4.70273C3.68197 4.91118 3.68197 5.25018 3.89042 5.45863L6.54157 8.10979C6.64258 8.21079 6.7768 8.26635 6.91958 8.26635C7.06236 8.26635 7.19659 8.21079 7.29759 8.10979L7.91093 7.49645C7.93004 7.47733 7.95215 7.45744 7.9826 7.43189C8.00271 7.41511 8.02582 7.39756 8.05527 7.37689C8.06005 7.37355 8.06471 7.37011 8.07005 7.36611C8.08782 7.35411 8.10871 7.34133 8.13716 7.325L8.15471 7.31444C8.17738 7.302 8.2006 7.29111 8.22405 7.28033L8.23905 7.27333L8.24727 7.26944C8.2696 7.25989 8.29227 7.25155 8.31538 7.24344L8.32716 7.23922C8.3325 7.23733 8.33783 7.23533 8.34327 7.23355C8.36527 7.22655 8.38738 7.22055 8.41316 7.214C8.42283 7.21155 8.4325 7.209 8.44227 7.20688C8.46372 7.20222 8.48516 7.19833 8.50705 7.19488C8.51916 7.193 8.53128 7.19111 8.54328 7.18966C8.56405 7.18711 8.58472 7.18522 8.60605 7.18377C8.61928 7.18288 8.63261 7.18233 8.64572 7.18188C8.65772 7.18155 8.66972 7.18133 8.68183 7.18133C8.68972 7.18133 8.69761 7.18144 8.70561 7.18166C8.72006 7.182 8.7345 7.18288 8.74872 7.18377C8.76772 7.185 8.78661 7.18644 8.80573 7.18866C8.82095 7.19044 8.83606 7.19288 8.85117 7.19522C8.86917 7.19811 8.88706 7.20089 8.90517 7.20477C8.91939 7.20777 8.93351 7.21155 8.95239 7.21633L8.95862 7.21789C8.97339 7.22166 8.98817 7.22533 9.00284 7.22989C9.01651 7.23411 9.02995 7.23922 9.04351 7.24411L9.05195 7.24722L9.06573 7.25222C9.07662 7.25611 9.08762 7.26 9.09851 7.26444C9.11206 7.27011 9.12529 7.27666 9.13862 7.283L9.14918 7.288L9.16751 7.29666C9.17551 7.30044 9.18351 7.304 9.1914 7.30822C9.20529 7.31566 9.21873 7.32411 9.23229 7.33233L9.24329 7.33911L9.26462 7.35189C9.26984 7.355 9.27529 7.35789 9.28051 7.36144C9.29751 7.37278 9.31385 7.38555 9.33029 7.39811L9.33629 7.40267C9.34373 7.40833 9.35129 7.41389 9.35885 7.41933L9.3654 7.424C9.39396 7.44733 9.42085 7.47167 9.4454 7.49611L10.352 8.40268C10.3765 8.42724 10.4008 8.45413 10.4232 8.48146L10.4291 8.48946C10.4345 8.49702 10.44 8.50446 10.4456 8.51191L10.4506 8.51857C10.463 8.53469 10.4755 8.55069 10.4868 8.56758C10.4903 8.57291 10.4933 8.57846 10.4965 8.58391L10.509 8.6048L10.516 8.61624C10.5242 8.62958 10.5325 8.64291 10.5399 8.6568C10.5441 8.66469 10.5478 8.6728 10.5515 8.6808L10.5601 8.69891L10.5653 8.70969C10.5716 8.72291 10.5781 8.73602 10.5838 8.74947C10.5882 8.76002 10.5919 8.7708 10.5958 8.78147L10.6009 8.79558L10.604 8.80425C10.6089 8.8178 10.614 8.83125 10.6183 8.84514C10.6228 8.85936 10.6263 8.87369 10.63 8.88803L10.6326 8.89858C10.6364 8.91336 10.6403 8.92803 10.6435 8.94314C10.6473 8.9608 10.6501 8.97858 10.6529 8.99636C10.6553 9.01169 10.6578 9.02692 10.6595 9.04247C10.6618 9.06136 10.6631 9.08025 10.6643 9.09903C10.6652 9.11336 10.6661 9.12781 10.6664 9.14225C10.6669 9.16214 10.6668 9.18203 10.6662 9.2017C10.6658 9.21514 10.6652 9.22859 10.6643 9.24214C10.663 9.26292 10.661 9.28359 10.6585 9.30381C10.657 9.31614 10.6552 9.32848 10.6532 9.34092C10.6498 9.36248 10.646 9.38381 10.6413 9.40503C10.6391 9.41503 10.6365 9.42481 10.6332 9.43803C10.6276 9.46026 10.6216 9.48226 10.6148 9.50392C10.613 9.50959 10.6109 9.51526 10.6089 9.52081L10.6046 9.53259C10.5966 9.55526 10.5884 9.57781 10.579 9.59982L10.5749 9.60859L10.5678 9.62382C10.5571 9.64704 10.5462 9.67004 10.5326 9.69459L10.523 9.71104C10.5069 9.73915 10.4942 9.75982 10.4824 9.77737C10.4786 9.78237 10.475 9.78737 10.4714 9.79237C10.4508 9.82193 10.4333 9.84504 10.4165 9.86493C10.3911 9.89538 10.3712 9.91749 10.3521 9.9366L10.3492 9.93949L10.3463 9.94249C9.9023 10.4091 9.23195 10.6661 8.45872 10.6661C7.01636 10.6661 5.35755 9.79504 3.78608 8.21168C2.18917 6.62754 1.31815 4.95562 1.33349 3.50438C1.34149 2.74736 1.59838 2.09013 2.05694 1.6539L2.05994 1.65101L2.06283 1.64812C2.08194 1.62901 2.10405 1.60912 2.1345 1.58357C2.15461 1.56679 2.17772 1.54923 2.20728 1.52856C2.21206 1.52523 2.21672 1.52179 2.22206 1.51779C2.23983 1.50579 2.26072 1.49301 2.28928 1.47667L2.30684 1.46612C2.3295 1.45367 2.35272 1.44279 2.37617 1.43201L2.39117 1.42501L2.39939 1.42112C2.42173 1.41156 2.4445 1.40323 2.4675 1.39512L2.47928 1.3909C2.48473 1.38901 2.49006 1.38701 2.49539 1.38523C2.51739 1.37823 2.53951 1.37223 2.56528 1.36567C2.57495 1.36323 2.58462 1.36067 2.5944 1.35856C2.61584 1.35389 2.63729 1.35001 2.65917 1.34656C2.67129 1.34467 2.6834 1.34278 2.69529 1.34134C2.71606 1.33878 2.73673 1.33689 2.75807 1.33545C2.77129 1.33456 2.78462 1.33401 2.79773 1.33356C2.80962 1.33345 2.82162 1.33334 2.83362 1.33334ZM2.83362 1C2.81829 1 2.80307 1.00022 2.78773 1.00067C2.77029 1.00122 2.75295 1.002 2.73562 1.00311C2.70851 1.00489 2.6814 1.00744 2.6544 1.01078C2.63851 1.01278 2.62273 1.01511 2.60695 1.01756C2.57873 1.022 2.55073 1.02711 2.52273 1.03322C2.50851 1.03633 2.49439 1.04 2.48028 1.04356C2.45117 1.05089 2.42228 1.05878 2.3935 1.068C2.38117 1.072 2.36895 1.07656 2.35673 1.08078C2.32684 1.09133 2.29717 1.10234 2.26783 1.11489C2.2575 1.11934 2.24739 1.12434 2.23717 1.12911C2.20661 1.14311 2.17628 1.15767 2.14661 1.17389C2.13861 1.17834 2.13083 1.18323 2.12294 1.18789C2.09161 1.20589 2.06072 1.22445 2.03061 1.245C2.02572 1.24834 2.02105 1.25223 2.01616 1.25556C1.98361 1.27834 1.95161 1.30201 1.92072 1.32789C1.88872 1.35467 1.85716 1.38234 1.82716 1.41234C0.570138 2.60847 0.457692 5.37874 3.55108 8.44902C5.38422 10.2959 7.11058 11.0002 8.45861 11.0002C9.3684 11.0002 10.1057 10.6795 10.5878 10.173C10.6178 10.143 10.6455 10.1115 10.6722 10.0795C10.698 10.0487 10.7215 10.0168 10.7443 9.98449C10.7479 9.97949 10.7518 9.97471 10.7552 9.9696C10.7756 9.9396 10.7941 9.90882 10.812 9.87771C10.8166 9.8696 10.8218 9.86171 10.8262 9.85349C10.8424 9.82393 10.8569 9.79382 10.8708 9.76337C10.8755 9.75293 10.8806 9.74271 10.8852 9.73226C10.8978 9.70315 10.9087 9.67359 10.9191 9.64382C10.9234 9.63137 10.9281 9.61904 10.9321 9.60648C10.9412 9.57793 10.9491 9.54915 10.9564 9.52015C10.9601 9.50581 10.9637 9.49159 10.9669 9.47726C10.973 9.44948 10.978 9.42159 10.9824 9.39348C10.985 9.37748 10.9873 9.36159 10.9893 9.34548C10.9927 9.31859 10.9951 9.2917 10.9969 9.2647C10.998 9.24714 10.9989 9.2297 10.9993 9.21214C11.0001 9.18625 11.0002 9.16047 10.9997 9.13458C10.9992 9.11581 10.9982 9.09703 10.997 9.07825C10.9954 9.05358 10.9935 9.02892 10.9907 9.00436C10.9883 8.98436 10.9852 8.96447 10.9821 8.94447C10.9784 8.92114 10.9747 8.89791 10.9698 8.8748C10.9653 8.8538 10.9599 8.83302 10.9545 8.81213C10.9489 8.79025 10.9434 8.76847 10.9367 8.74691C10.9299 8.72513 10.9219 8.70369 10.9141 8.68213C10.9068 8.66191 10.8998 8.64158 10.8914 8.62158C10.8821 8.59913 10.8713 8.57735 10.8608 8.55535C10.8519 8.5368 10.8436 8.51813 10.8339 8.50002C10.8215 8.4768 10.8074 8.45446 10.7938 8.4318C10.7839 8.41557 10.7748 8.39891 10.7641 8.38302C10.7474 8.35802 10.7289 8.33402 10.7104 8.3099C10.7008 8.29724 10.6921 8.28413 10.682 8.27179C10.6525 8.23579 10.6211 8.20079 10.5875 8.16723L9.68096 7.26066C9.64741 7.22711 9.61241 7.19577 9.57641 7.16622C9.56407 7.15611 9.55107 7.14755 9.53852 7.13788C9.51429 7.11944 9.49029 7.10077 9.46518 7.0841C9.44929 7.07355 9.43285 7.06455 9.41662 7.05466C9.39396 7.04088 9.37151 7.02677 9.34829 7.01444C9.33018 7.00477 9.31151 6.99644 9.29307 6.98766C9.27107 6.9771 9.24907 6.96633 9.22662 6.95699C9.20662 6.94866 9.18618 6.94166 9.16584 6.93421C9.1444 6.92644 9.12317 6.91855 9.1014 6.91177C9.07962 6.90499 9.05762 6.89944 9.03562 6.89377C9.01495 6.88844 8.99428 6.8831 8.97351 6.87866C8.95017 6.87377 8.92684 6.86988 8.90339 6.86621C8.88362 6.8631 8.86384 6.85999 8.84395 6.85766C8.81928 6.85477 8.79461 6.85288 8.76984 6.85132C8.75106 6.8501 8.73239 6.8491 8.71361 6.84866C8.70295 6.84843 8.69228 6.84832 8.68172 6.84832C8.66639 6.84832 8.65117 6.84855 8.63583 6.84899C8.61839 6.84955 8.60106 6.85032 8.58372 6.85143C8.55661 6.85321 8.5295 6.85577 8.5025 6.8591C8.48661 6.8611 8.47083 6.86343 8.45494 6.86588C8.42672 6.87032 8.39872 6.87543 8.37072 6.88155C8.3565 6.88466 8.34238 6.88832 8.32827 6.89188C8.29916 6.89921 8.27027 6.9071 8.24149 6.91632C8.22916 6.92032 8.21694 6.92488 8.20471 6.9291C8.17483 6.93966 8.14516 6.95066 8.11582 6.96321C8.10549 6.96766 8.09538 6.97266 8.08516 6.97744C8.0546 6.99144 8.02427 7.00599 7.9946 7.02222C7.9866 7.02666 7.97882 7.03155 7.97093 7.03622C7.9396 7.05422 7.90871 7.07277 7.8786 7.09333C7.87371 7.09666 7.86904 7.10055 7.86415 7.10388C7.8316 7.12666 7.7996 7.15033 7.76871 7.17622C7.73671 7.203 7.70515 7.23066 7.67515 7.26066L7.06181 7.87401C7.02247 7.91334 6.97103 7.9329 6.91958 7.9329C6.86814 7.9329 6.81658 7.91323 6.77736 7.87401L4.1262 5.22263C4.04764 5.14407 4.04764 5.01662 4.1262 4.93807L4.73954 4.32472C4.76954 4.29472 4.79732 4.26317 4.8241 4.23117C4.84988 4.20039 4.87343 4.1685 4.89621 4.13617C4.89977 4.13117 4.90366 4.12639 4.9071 4.12128C4.92755 4.09128 4.94599 4.0605 4.96388 4.02939C4.96855 4.02127 4.97366 4.01339 4.9781 4.00516C4.99433 3.97561 5.00877 3.9455 5.02266 3.91505C5.02744 3.90461 5.03255 3.89438 5.0371 3.88394C5.04966 3.85483 5.06055 3.82527 5.07099 3.79549C5.07533 3.78305 5.07999 3.77071 5.08399 3.75816C5.09311 3.7296 5.10099 3.70082 5.10833 3.67182C5.11199 3.65749 5.11555 3.64327 5.11877 3.62893C5.12488 3.60116 5.12988 3.57327 5.13433 3.54516C5.13688 3.52915 5.13922 3.51327 5.14122 3.49715C5.14455 3.47026 5.147 3.44338 5.14877 3.41637C5.15 3.39882 5.15077 3.38137 5.15122 3.36382C5.152 3.33793 5.15211 3.31215 5.15155 3.28626C5.15111 3.26748 5.15011 3.24871 5.14888 3.22993C5.14733 3.20526 5.14544 3.18059 5.14255 3.15604C5.14022 3.13604 5.13711 3.11615 5.13399 3.09615C5.13033 3.07281 5.12644 3.04959 5.12166 3.02648C5.11722 3.00548 5.11177 2.9847 5.10644 2.96381C5.10077 2.94192 5.09533 2.92014 5.08855 2.89859C5.08177 2.87681 5.07377 2.85537 5.06599 2.83381C5.05866 2.81359 5.05166 2.79325 5.04333 2.77325C5.03399 2.75081 5.02322 2.72903 5.01266 2.70703C5.00377 2.68847 4.99555 2.66981 4.98577 2.6517C4.97344 2.62847 4.95933 2.60614 4.94566 2.58347C4.93577 2.56725 4.92666 2.55058 4.91599 2.53469C4.89932 2.50969 4.88077 2.48569 4.86232 2.46158C4.85266 2.44891 4.84399 2.4358 4.83388 2.42347C4.80443 2.38747 4.77299 2.35247 4.73943 2.31891L3.83286 1.41234C3.79931 1.37878 3.7643 1.34745 3.7283 1.31789C3.71597 1.30778 3.70297 1.29923 3.6903 1.28956C3.66608 1.27112 3.64208 1.25245 3.61697 1.23578C3.60108 1.22523 3.58464 1.21623 3.56841 1.20634C3.54575 1.19256 3.5233 1.17845 3.50008 1.16611C3.48197 1.15645 3.4633 1.14811 3.44485 1.13934C3.42285 1.12878 3.40085 1.118 3.37841 1.10867C3.35841 1.10034 3.33796 1.09333 3.31763 1.08589C3.29619 1.07811 3.27496 1.07022 3.25319 1.06345C3.23141 1.05667 3.20941 1.05111 3.18741 1.04545C3.16674 1.04011 3.14607 1.03478 3.12529 1.03033C3.10196 1.02544 3.07863 1.02156 3.05518 1.01789C3.0354 1.01478 3.01563 1.01167 2.99574 1.00933C2.97107 1.00644 2.9464 1.00456 2.92162 1.003C2.90285 1.00178 2.88418 1.00078 2.8654 1.00033C2.85496 1.00011 2.84429 1 2.83362 1Z" stroke="#D77900"/>
</g>
</g>
<defs>
<clipPath id="clip0_580_8992">
<rect width="12" height="12" fill="white"/>
</clipPath>
<clipPath id="clip1_580_8992">
<rect width="12" height="12" fill="white"/>
</clipPath>
</defs>
</svg>
